<svg xmlns="http://www.w3.org/2000/svg" version="1.1" xmlns:xlink="http://www.w3.org/1999/xlink" xmlns:svgjs="http://svgjs.dev/svgjs" viewBox="0 0 800 800"><defs><linearGradient x1="50%" y1="0%" x2="50%" y2="100%" id="wwwhirl-grad"><stop stop-color="hsl(265, 55%, 30%)" stop-opacity="1" offset="45%"></stop><stop stop-color="hsl(265, 55%, 60%)" stop-opacity="1" offset="100%"></stop></linearGradient></defs><g stroke-width="2" stroke="url(#wwwhirl-grad)" fill="none" stroke-linecap="round"><path d="M86.5000021743775 417.44078438557824C96.00000243793842 409.6032841681405 124.50000322862115 369.2757830493244 143.50000375574297 370.4157830809517C162.50000428286478 371.55578311257904 181.5000048099866 424.85078459115573 200.5000053371084 424.28078457534207C219.50000586423025 423.7107845595284 238.50000639135206 366.5682829742095 257.5000069184739 366.9957829860698C276.5000074455957 367.42328299793 295.5000079727175 428.5557846939445 314.5000084998394 426.8457846465035C333.5000090269612 425.13578459906256 352.50000955408296 359.01578276467865 371.5000100812048 356.735782701424C390.5000106083266 354.4557826381694 409.50001113544846 411.7407842274417 428.5000116625702 413.16578426697583C447.5000121896921 414.59078430650993 466.5000127168139 360.29828280025936 485.5000132439357 365.2857829386288C504.50001377105747 370.2732830769983 523.5000142981794 438.8157849785903 542.5000148253012 443.0907850971927C561.5000153524229 447.3657852157951 580.5000158795449 393.0732837095445 599.5000164066666 390.93578365024325C618.5000169337885 388.7982835909421 637.5000174609104 434.3982848560345 656.500017988032 430.26578474138546C675.5000185151539 426.13328462673644 704.0000193058366 376.8282832588553 713.5000195693975 366.1407829623493 " transform="rotate(99, 400, 400)"></path><path d="M96.00000210848728 416.9122794669338C105.2121235761827 409.31227925608505 132.848487979269 370.206823625718 151.27273091465986 371.3122782018414C169.6969738500507 372.4177327779649 188.12121678544156 424.0977342117362 206.5454597208324 423.5450069236745C224.96970265622326 422.9922796356128 243.3939455916141 367.58136900742477 261.81818852700496 367.9959144734711C280.24243146239587 368.41045993951735 298.66667439778666 427.69046158413744 317.0909173331776 426.03227971995227C335.5151602685684 424.3740978557671 353.9394032039592 360.2577324406069 372.36364613935007 358.04682328836003C390.787889074741 355.8359141361131 409.21213201013177 411.38500658631654 427.6363749455227 412.7668248064709C446.0606178809135 414.14864302662517 464.4848608163044 361.5013688387458 482.9091037516952 366.3377326092859C501.333346687086 371.174096379826 519.757589622477 437.6395527692485 538.1818325578678 441.78500742971147C556.6060754932586 445.9304620901744 575.0303184286496 393.283187902295 593.4545613640404 391.21046057206354C611.8788042994312 389.1377332418321 630.3030472348221 433.35591628677014 648.7272901702129 429.3486434483226C667.1515331056037 425.3413706098751 694.78789750869 377.5304601925358 704.0000189763855 367.1668235413785 " transform="rotate(96, 400, 400)"></path><path d="M105.50000204259705 416.3837707335921C114.424244714427 409.0212705293324 141.19697272991684 371.1378603874143 159.04545807357673 372.20876950803387C176.89394341723664 373.27967862865347 194.7424287608965 423.34468001761945 212.5909141045564 422.8092254573097C230.43939944821628 422.2737708969999 248.28788479187617 368.59445122594275 266.136370135536 368.9960421461751C283.98485547919597 369.3976330664075 301.83334082285586 426.82513465963314 319.68182616651575 425.2187709787038C337.5303115101757 423.6124072977744 355.3787968538355 361.49967830183795 373.2272821974954 359.3578600605988C391.0757675411553 357.2160418193596 408.9242528848152 411.0292251304941 426.7727382284751 412.36786153126866C444.62122357213497 413.70649793204313 462.46970891579485 362.704451062535 480.3181942594548 367.3896784652457C498.1666796031146 372.07490586795643 516.0151649467746 436.4633167452095 533.8636502904344 440.479225947533C551.7121356340942 444.4951351498564 569.5606209777543 393.49308828034833 587.4091063214141 391.48513367918656C605.257591665074 389.47717907802485 623.1060770087339 432.3135439028086 640.9545623523939 428.43149834056254C658.8030476960536 424.5494527783165 685.5757757115435 378.2326333115191 694.5000183833735 368.19286030571044 " transform="rotate(93, 400, 400)"></path><path d="M115.00000197670683 415.85526200025043C123.63636585267129 408.7302618025798 149.5454574805647 372.0688971491106 166.8181852324936 373.10526081422637C184.09091298442254 374.1416244793421 201.36364073635144 422.59162582350274 218.63636848828037 422.07344399094484C235.9090962402093 421.555262158387 253.18182399213825 369.6075334444607 270.4545517440672 369.99616981887914C287.7272794959961 370.38480619329755 305.00000724792505 425.95980773512883 322.272734999854 424.40526223745525C339.5454627517829 422.85071673978166 356.8181905037118 362.741624163069 374.0909182556407 360.6688968328375C391.3636460075696 358.5961695026061 408.63637375949855 410.6734436746718 425.9091015114275 411.96889825606644C443.18182926335646 413.2643528374611 460.45455701528533 363.9075332863242 477.72728476721426 368.44162432120555C495.00001251914324 372.9757153560869 512.2727402710722 435.28708072117047 529.545468023001 439.17344446535446C546.8181957749299 443.0598082095385 564.090923526859 393.7029886584016 581.363651278788 391.7598067863096C598.6363790307169 389.8166249142176 615.9091067826457 431.27117151884704 633.1818345345746 427.5143532328025C650.4545622865036 423.7575349467579 676.363653914397 378.93480643050236 685.0000177903614 369.2188970700423 " transform="rotate(90, 400, 400)"></path><path d="M124.5000019108166 415.3267494522115C132.84848699091557 408.4392492611298 157.89394223121252 372.99993009610967 174.59091239141048 374.00174830572155C191.28788255160845 375.00356651533343 207.9848527118064 421.8385678146887 224.68182287200437 421.33765870988276C241.37879303220234 420.8367496050768 258.0757631924003 370.62061184828144 274.77273335259827 370.9962936768859C291.46970351279623 371.37197550549035 308.1666736729942 425.0944769959273 324.86364383319216 423.5917496815095C341.5606139933901 422.0890223670917 358.257584153588 363.98356620960277 374.95455431378605 361.979929790379C391.65152447398395 359.97629337115524 408.348494634182 410.3176584041521 425.04546479437994 411.56993116616695C441.74243495457785 412.8222039281818 458.43940511477587 365.11061169541614 475.13637527497383 369.4935663624681C491.8333454351718 373.87652102952006 508.5303155953697 434.1108408824342 525.2272857555677 437.8676591684787C541.9242559157656 441.6244774545233 558.6212260759637 393.9128852217576 575.3181962361616 392.03447607873534C592.0151663963595 390.15606693571306 608.7121365565575 430.22879532018817 625.4091067167554 426.5972043103451C642.1060768769535 422.96561330050207 667.1515321172504 379.63697573478834 675.5000171973493 370.244930019677 " transform="rotate(87, 400, 400)"></path><path d="M134.00000184492637 414.7982445335671C142.06060812915987 408.14824434907445 166.24242698186038 373.93097067250324 182.36363955032738 374.89824342661126C198.48485211879438 375.8655161807193 214.60606468726135 421.0855174352692 230.72727725572835 420.6018810582152C246.84848982419533 420.1182446811612 262.9697023926624 371.6336978814967 279.09091496112933 371.9964251642872C295.2121275295964 372.3591524470777 311.33334009806333 424.2291538861203 327.4545526665304 422.7782447549582C343.5757652349974 421.3273356237962 359.69697780346434 365.2255158855311 375.81819037193134 363.29097037731503C391.93940294039834 361.356424869099 408.06061550886534 409.96188076302695 424.18182807733234 411.170971705662C440.30304064579934 412.38006264829704 456.42425321426634 366.3136977339026 472.54546578273334 370.5455160331252C488.66667835120035 374.7773343323478 504.78789091966735 432.93460867309244 520.9091034881343 436.5618815009975C537.0303160566012 440.1891543289026 553.1515286250683 394.12278941450813 569.2727411935354 392.3091530005556C585.3939537620023 390.49551658660306 601.5151663304694 429.1864267509239 617.6363788989363 425.6800630172823C633.7575914674032 422.1736992836407 657.9394103201038 380.33915266846884 666.0000166043372 371.2709705987062 " transform="rotate(84, 400, 400)"></path><path d="M143.50000177903615 414.26973580022536C151.27272926740415 407.8572356223218 174.59091173250823 374.86200743419954 190.13636670924424 375.7947347328037C205.68182168598028 376.72746203140787 221.2272766627163 420.3324632411524 236.77273163945233 419.86609959185034C252.31818661618837 419.39973594254826 267.8636415929244 372.64678010001467 283.40909656966045 372.9965528369912C298.9545515463965 373.34632557396776 314.5000065231325 423.363826961616 330.04546149986857 421.96473601370974C345.5909164766046 420.5656450658035 361.13637145334064 366.46746174676207 376.6818264300766 364.60200714955374C392.22728140681266 362.7365525523454 407.7727363835487 409.6060993072046 423.31819136028474 410.7720084304598C438.8636463370208 411.937917553715 454.4091013137568 367.51677995769177 469.95455629049286 371.59746188908497C485.5000112672289 375.67814382047817 501.0454662439649 431.7583726490534 516.5909212207009 435.25610001881904C532.1363761974369 438.7538273885846 547.6818311741731 394.33268979256144 563.2272861509091 392.58382610767865C578.7727411276451 390.8349624227958 594.3181961043812 428.14405436696234 609.8636510811172 424.76291790952223C625.4091060578533 421.3817814520821 648.7272885229572 381.04132578745214 656.5000160113252 372.2970073630381 " transform="rotate(81, 400, 400)"></path><path d="M152.99998645435687 413.7412270668837C160.48483514685938 407.5662268955691 182.939381224367 375.79304419589585 197.90907860937205 376.69122603899615C212.87877599437712 377.58940788209645 227.8484733793822 419.5794090470357 242.81817076438728 419.13031812548553C257.78786814939235 418.6812272039354 272.75756553439743 373.65986231853265 287.7272629194025 373.99668050969524C302.6969603044075 374.3334987008579 317.66665768941266 422.4985000371117 332.6363550744177 421.15122727246126C347.6060524594228 419.8039545078108 362.57574984442783 367.7094076079931 377.54544722943285 365.9130439217925C392.515144614438 364.1166802355919 407.484841999443 409.2503178513822 422.4545393844481 410.37304515525756C437.42423676945316 411.495772459133 452.39393415445824 368.71986218148095 467.3636315394633 372.6494077450448C482.3333289244684 376.5789533086086 497.30302630947347 430.5821366250144 512.2727236944785 433.95031853664057C527.2424210794836 437.3185004482667 542.2121184644888 394.5425901706147 557.1818158494938 392.85849921480167C572.1515132344988 391.1744082589886 587.1212106195039 427.10168198300073 602.090908004509 423.8457728017621C617.060605389514 420.58986362052354 639.5151514670216 381.7434989064354 647.0000001595241 373.32304412737005 " transform="rotate(78, 400, 400)"></path><path d="M162.49998638846662 413.21271833354206C169.69695628510368 407.2752181688165 191.28786597501482 376.72408095759215 205.68180576828894 377.5877173451886C220.07574556156305 378.4513537327851 234.46968535483714 418.82635485291894 248.86362514811125 418.3945366591207C263.25756494138534 417.9627184653225 277.6515047346595 374.6729445370506 292.04544452793357 374.99680818239926C306.4393843212077 375.32067182774796 320.8333241144818 421.6331731126074 335.2272639077559 420.3377185312127C349.62120370103 419.04226394981805 364.0151434943041 368.95135346922416 378.4090832875782 367.2240806940313C392.8030230808523 365.4968079188384 407.1969628741264 408.8945363955598 421.59090266740054 409.97408188005534C435.98484246067466 411.05362736455095 450.3787822539487 369.9229444052702 464.7727220472228 373.7013536010046C479.1666618404969 377.47976279673907 493.56060163377106 429.40590060097543 507.9545414270451 432.64453705446203C522.3484812203192 435.88317350794875 536.7424210135935 394.752490548668 551.1363608068675 393.13317232192463C565.5303006001416 391.51385409518133 579.9242403934156 426.0593095990392 594.3181801866898 422.92862769400205C608.7121199799639 419.7979457889649 630.3030296698751 382.4456720254186 637.4999995665121 374.34908089170193 " transform="rotate(75, 400, 400)"></path><path d="M171.99998632257638 412.68420960020035C178.90907742334798 406.9842094420638 199.63635072566268 377.6551177192885 213.45453292720583 378.4842086513811C227.27271512874898 379.3132995834737 241.09089733029208 418.07330065880217 254.90907953183523 417.6587551927559C268.7272617333784 417.2442097267096 282.54544393492154 375.6860267555686 296.3636261364647 375.9969358551033C310.18180833800784 376.307844954638 323.99999053955094 420.7678461881031 337.81817274109414 419.52420978996423C351.63635494263724 418.2805733918253 365.45453714418034 370.1932993304552 379.27271934572354 368.53511746627004C393.09090154726664 366.8769356020848 406.90908374880985 408.53875493973743 420.72726595035294 409.5751186048532C434.5454481518961 410.61148226996886 448.36363035343925 371.12602662905937 462.1818125549824 374.75329945696444C475.99999475652544 378.3805722848695 489.81817695806865 428.2296645769364 503.6363591596118 431.3387555722836C517.454541361155 434.4478465676308 531.2727235626982 394.9623909267213 545.0909057642413 393.40784542904765C558.9090879657845 391.85329993137407 572.7272701673276 425.01693721507763 586.5454523688707 422.011482586242C600.3636345704138 419.00602795740633 621.0909078727285 383.1478451444019 627.9999989735 375.37511765603386 " transform="rotate(72, 400, 400)"></path><path d="M181.49998625668616 412.15570086685864C188.12119856159225 406.69320071531115 207.98483547631054 378.5861544809848 221.2272600861227 379.38069995757354C234.4696846959349 380.17524543416226 247.71210930574705 417.3202464646854 260.95453391555924 416.92297372639104C274.19695852537143 416.5257009880967 287.43938313518356 376.6991089740866 300.68180774499575 376.9970635278073C313.92423235480794 377.2950180815281 327.16665696462013 419.9025192635988 340.4090815744323 418.7107010487157C353.65150618424445 417.5188828338326 366.8939307940566 371.43524519168625 380.13635540386883 369.84615423850875C393.378780013681 368.2570632853313 406.62120462349316 408.182973483915 419.86362923330535 409.17615532965095C433.1060538431176 410.16933717538683 446.3484784529297 372.32910885284855 459.5909030627419 375.8052453129242C472.83332767255405 379.28138177299996 486.07575228236624 427.05342855289734 499.3181768921784 430.0329740901051C512.5606015019905 433.0125196273128 525.8030261118029 395.17229130477455 539.045450721615 393.6825185361707C552.2878753314271 392.1927457675668 565.5302999412394 423.974564831116 578.7727245510515 421.09433747848186C592.0151491608635 418.21411012584775 611.878786075582 383.85001826338515 618.499998380488 376.4011544203658 " transform="rotate(69, 400, 400)"></path><path d="M190.99998619079594 411.627192133517C197.33331969983655 406.4021919885585 216.3333202269584 379.5171912426811 228.99998724503956 380.277191263766C241.6666542631208 381.03719128485085 254.333321281202 416.5671922705687 266.99998829928325 416.1871922600262C279.6666553173644 415.8071922494838 292.33332233544564 377.71219119260456 304.99998935352687 377.9971912005114C317.66665637160804 378.2821912084182 330.3333233896893 419.0371923390945 342.9999904077705 417.8971923074672C355.6666574258517 416.7571922758399 368.33332444393295 372.67719105291724 380.9999914620141 371.1571910107475C393.66665848009535 369.6371909685778 406.3333254981766 407.8271920280926 418.99999251625775 408.77719205444873C431.666659534339 409.7271920808048 444.3333265524202 373.53219107663773 456.99999357050143 376.85719116888407C469.6666605885826 380.18219126113036 482.33332760666383 425.87719252885836 494.99999462474506 428.7271926079266C507.6666616428262 431.5771926869949 520.3333286609076 395.38219168282785 532.9999956789886 393.9571916432937C545.6666626970699 392.53219160375954 558.3333297151512 422.9321924471545 570.9999967332324 420.1771923707218C583.6666637513135 417.4221922942891 602.6666642784353 384.5521913823684 608.9999977874759 377.42719118469773 " transform="rotate(66, 400, 400)"></path><path d="M200.49998612490572 411.09868340017533C206.54544083808082 406.1111832618058 224.68180497760622 380.4482280043774 236.77271440395646 381.17368256995843C248.86362383030672 381.89913713553943 260.95453325665693 415.8141380764519 273.0454426830072 415.4514107936614C285.13635210935746 415.0886835108709 297.2272615357077 378.72527341112254 309.31817096205793 378.9973188732154C321.4090803884082 379.2693643353083 333.49998981475846 418.17186541459023 345.5908992411087 417.08368356621867C357.681808667459 415.99550171784716 369.7727180938092 373.9191369141483 381.8636275201594 372.4682277829863C393.9545369465097 371.0173186518242 406.04544637285994 407.4714105722702 418.13635579921015 408.3782287792465C430.2272652255605 409.28504698622277 442.3181746519107 374.7352733004269 454.409084078261 377.90913702484386C466.49999350461115 381.0830007492608 478.5909029309614 424.7009565048193 490.6818123573117 427.42141112574814C502.7727217836619 430.14186574667696 514.8636312100123 395.5920920608811 526.9545406363625 394.2318647504167C539.0454500627127 392.87163743995234 551.1363594890629 421.88982006319293 563.2272689154131 419.26004726296173C575.3181783417634 416.63027446273054 593.4545424812889 385.25436450135163 599.499997194464 378.4532279490296 " transform="rotate(63, 400, 400)"></path><path d="M209.9999860590155 410.570172759485C215.75756197632512 405.82017262770455 233.03028972825405 381.3792628587251 244.54544156287335 382.07017196880224C256.06059339749265 382.76108107887944 267.5757452321119 415.0610819749865 279.0908970667312 414.71562741994796C290.6060489013505 414.37017286490936 302.12120073596975 379.7383537222919 313.63635257058905 379.9974446385708C325.15150440520836 380.25653555484973 336.6666562398276 417.3065365827373 348.1818080744469 416.27017291762155C359.6969599090662 415.2338092525058 371.21211174368545 375.1610808680307 382.72726357830476 373.7792626478764C394.24241541292406 372.39744442772206 405.7575672475433 407.1156272090992 417.2727190821626 407.97926359669566C428.7878709167819 408.8428999842921 440.30302275140116 375.9383536168675 451.81817458602046 378.96108097345507C463.3333264206397 381.9838083300426 474.848478255259 423.5247185734317 486.3636300898783 426.11562773622103C497.87878192449756 428.70653689901036 509.3939337591169 395.8019905315858 520.9090855937362 394.5065359501911C532.4242374283555 393.21108136879644 543.9393892629748 420.8474457718827 555.4545410975941 418.342900247853C566.9696929322133 415.83835472382333 584.2424206841422 385.9565357129863 589.9999966014518 379.4792628060129 " transform="rotate(60, 400, 400)"></path><path d="M219.49998599312528 410.0416659334919C224.96968311456942 405.5291658083005 241.3787744789019 382.31030152777004 252.31816872179022 382.9666651823434C263.2575629646785 383.62302883691666 274.1969572075668 414.30802968821837 285.1363514504552 413.9798478609317C296.0757456933435 413.6516660336451 307.01513993623183 380.75143784815845 317.9545341791202 380.99757421862347C328.89392842200846 381.24371058908844 339.8333226648968 416.4412115655816 350.77271690778514 415.45666608372164C361.7121111506734 414.4721206018617 372.6515053935617 376.4030286366104 383.59089963645005 375.09030132746375C394.5302938793384 373.7775740183172 405.46968812222667 406.75984766062544 416.40908236511507 407.5803022288421C427.34847660800335 408.4007567970587 438.28787085089164 377.14143774800533 449.22726509378 380.0130287367635C460.1666593366683 382.8846197255217 471.10605357955666 422.3484844567413 482.04544782244494 424.8098481613912C492.9848420653332 427.271211866041 503.9242363082216 396.01189281698765 514.86363055111 394.78121096466276C525.8030247939982 393.5505291123378 536.7424190368865 419.8050752952698 547.6818132797748 417.42575704744155C558.6212075226631 415.0464387996133 575.0302988869958 386.65871073931817 580.4999960084399 380.5053014776935 " transform="rotate(57, 400, 400)"></path><path d="M228.99998592723503 409.51315720015026C234.18180425281372 405.23815708154785 249.72725922954976 383.2413382894664 260.0908958807071 383.8631564885358C270.45453253186446 384.48497468760524 280.81816918302184 413.55497549410165 291.18180583417916 413.2440663945669C301.54544248533654 412.9331572950322 311.9090791364939 381.7645200666764 322.27271578765124 381.9977018913275C332.6363524388086 382.2308837159785 342.999989089966 415.5758846410773 353.3636257411233 414.64315734247316C363.72726239228064 413.710430043869 374.090899043438 377.6449744978414 384.4545356945954 376.4013380997025C394.8181723457527 375.1577017015636 405.18180899691004 406.40406620480303 415.54544564806747 407.18133895363985C425.9090822992248 407.9586117024767 436.2727189503821 378.3445199717945 446.6363556015395 381.06497459272333C456.99999225269687 383.78542921365215 467.36362890385425 421.1722484327023 477.72726555501157 423.5040666792127C488.0909022061689 425.8358849257231 498.4545388573263 396.22179319504096 508.81817550848365 395.0558840717857C519.1818121596409 393.88997494853055 529.5454488107985 418.7627029113082 539.9090854619557 416.5086119396815C550.2727221131131 414.25452096805475 565.8181770898491 387.3608838583014 570.9999954154277 381.5313382420254 " transform="rotate(54, 400, 400)"></path><path d="M238.4999858613448 408.9846484668086C243.39392539105802 404.9471483547952 258.07574398019756 384.1723750511627 267.863623039624 384.75964779472827C277.6515020990504 385.34692053829383 287.43938115847675 412.8019212999849 297.22726021790317 412.5082849282021C307.0151392773296 412.2146485564193 316.80301833675594 382.7776022851944 326.59089739618236 382.9978295640315C336.3787764556087 383.2180568428686 346.16665551503513 414.710557716573 355.9545345744615 413.8296486012247C365.7424136338879 412.9487394858763 375.53029269331427 378.8869203590724 385.3181717527407 377.7123748719413C395.10605081216704 376.5378293848101 404.89392987159346 406.0482847489807 414.6818089310199 406.78237567843763C424.46968799044623 407.51646660789464 434.25756704987265 379.5476021955837 444.04544610929906 382.1169204486831C453.8333251687254 384.68623870178254 463.62120422815184 419.99601240866326 473.4090832875782 422.19828519703424C483.19696234700456 424.40055798540516 492.98484140643103 396.4316935730942 502.77272046585745 395.33055717890875C512.5605995252838 394.2294207847233 522.3484785847102 417.7203305273466 532.1363576441365 415.5914668319214C541.9242367035629 413.46260313649617 556.6060552927025 388.06305697728465 561.4999948224157 382.55737500635735 " transform="rotate(51, 400, 400)"></path><path d="M247.99998579545456 408.4561397334669C252.6060465293023 404.6561396280425 266.42422873084547 385.103411812859 275.63635019854087 385.6561391009207C284.84847166623626 386.2088663889824 294.0605931339317 412.0488671058681 303.2727146016272 411.77250346183723C312.48483606932257 411.4961398178064 321.69695753701797 383.7906845037124 330.9090790047134 383.99795723673554C340.1212004724089 384.2052299697587 349.33332194010427 413.8452307920687 358.5454434077997 413.01613985997614C367.7575648754952 412.18704892788355 376.9696863431906 380.12886622030345 386.18180781088597 379.02341164418C395.3939292785814 377.9179570680566 404.6060507462768 405.69250329315827 413.8181722139723 406.3834124032354C423.0302936816677 407.0743215133126 432.2424151493631 380.7506844193729 441.4545366170586 383.16886630464296C450.666658084754 385.587048189913 459.87877955244943 418.8197763846243 469.0909010201448 420.8925037148557C478.3030224878402 422.9652310450872 487.51514395553573 396.6415939511475 496.72726542323113 395.60523028603177C505.9393868909265 394.568866620916 515.151508358622 416.67795814338507 524.3636298263174 414.6743217241613C533.5757512940128 412.67068530493754 547.393933495556 388.76523009626794 551.9999942294037 383.5834117706892 " transform="rotate(48, 400, 400)"></path><path d="M257.49998572956434 407.92763100012525C261.81816766754656 404.3651309012899 274.77271348149327 386.0344485745553 283.4090773574577 386.55263040711316C292.0454412334222 387.07081223967106 300.6818051093867 411.29581291175134 309.3181689853511 411.0367219954724C317.95453286131556 410.7776310791935 326.59089673728005 384.80376672223036 335.22726061324454 384.99808490943957C343.863624489209 385.1924030966488 352.49998836517346 412.9799038675644 361.13635224113796 412.20263111872765C369.7727161171024 411.42535836989083 378.4090799930668 381.3708120815345 387.04544386903126 380.33444841641875C395.68180774499575 379.298084751303 404.31817162096024 405.33672183733586 412.9545354969247 405.98444912803325C421.59089937288917 406.6321764187305 430.2272632488536 381.9537666431621 438.8636271248181 384.22081216060275C447.49999100078253 386.48785767804344 456.136354876747 417.64354036058523 464.77271875271146 419.58672223267723C473.4090826286759 421.52990410476923 482.04544650464044 396.8514943292008 490.68181038060493 395.8799033931548C499.31817425656936 394.90831245710876 507.9545381325338 415.6355857594235 516.5909020084982 413.75717661640124C525.2272658844627 411.87876747337896 538.1818116984094 389.4674032152512 542.4999936363917 384.60944853502116 " transform="rotate(45, 400, 400)"></path><path d="M266.9999856636741 407.39912226678354C271.03028880579086 404.0741221745372 283.1211982321411 386.9654853362516 291.18180451637465 387.44912171330566C299.2424108006081 387.93275809035964 307.3030170848416 410.5427587176346 315.3636233690751 410.3009405291076C323.4242296533086 410.0591223405806 331.48483593754213 385.81684894074834 339.5454422217756 385.9982125821436C347.60604850600913 386.17957622353885 355.6666547902426 412.1145769430601 363.72726107447613 411.3891223774791C371.7878673587096 410.6636678118981 379.8484736429431 382.61275794276554 387.9090799271766 381.6454851886575C395.96968621141014 380.6782124345495 404.0302924956436 404.9809403815135 412.0908987798771 405.585485852831C420.1515050641106 406.1900313241485 428.21211134834414 383.1568488669513 436.2727176325776 385.2727580165626C444.3333239168111 387.3886671661739 452.3939302010446 416.46730433654625 460.4545364852781 418.28094075049876C468.51514276951156 420.09457716445127 476.5757490537451 397.06139470725407 484.6363553379786 396.1545765002778C492.6969616222121 395.24775829330156 500.7575679064456 414.5932133754619 508.8181741906791 412.8400315086412C516.8787804749126 411.0868496418204 528.9696899012629 390.1695763342344 532.9999930433796 385.6354852993531 " transform="rotate(42, 400, 400)"></path><path d="M276.4999855977839 406.8706135334419C280.24240994403516 403.78311344778456 291.469682982789 387.8965220979479 298.9545316752915 388.3456130194981C306.439380367794 388.7947039410482 313.92422906029657 409.78970452351786 321.40907775279913 409.5651590627428C328.89392644530164 409.3406136019677 336.37877513780415 386.8299311592663 343.8636238303067 386.9983402548476C351.34847252280923 387.1667493504289 358.8333212153118 411.2492500185558 366.3181699078143 410.5756136362306C373.8030186003169 409.9019772539054 381.2878672928194 383.8547038039966 388.7727159853219 382.9565219608963C396.25756467782446 382.058340117796 403.742413370327 404.6251589256911 411.2272620628295 405.1865225776288C418.71211075533205 405.74788622956646 426.1969594478346 384.3599310907405 433.6818081403371 386.3247038725224C441.16665683283964 388.28947665430434 448.6515055253422 415.2910683125072 456.1363542178447 416.9751592683203C463.6212029103473 418.65925022413336 471.10605160284985 397.2712950853074 478.59090029535236 396.42924960740083C486.07574898785487 395.5872041294943 493.56059768035743 413.55084099150037 501.04544637285994 411.92288640088105C508.53029506536245 410.29493181026174 519.7575681041162 390.8717494532177 523.4999924503675 386.661522063685 " transform="rotate(39, 400, 400)"></path><path d="M286.00000079068275 406.3421048001002C289.4545463410685 403.4921047210319 299.81818299222584 388.8275588596442 306.72727409299745 389.24210432569055C313.63636519376905 389.6566497917368 320.5454562945406 409.0366503294011 327.45454739531215 408.8293775963779C334.3636384960837 408.6221048633548 341.2727295968553 387.8430133777843 348.1818206976269 387.99846792755164C355.09091179839845 388.15392247731904 362.00000289917 410.38392309405157 368.9090939999416 409.7621048949821C375.81818510071315 409.14028669591266 382.7272762014847 385.0966496652276 389.6363673022563 384.267558733135C396.54545840302785 383.4384678010424 403.45454950379946 404.2693774698687 410.363640604571 404.7875593024266C417.2727317053426 405.30574113498443 424.18182280611416 385.56301331452966 431.0909139068857 387.3766497284822C438.00000500765725 389.19028614243473 444.90909610842886 414.1148322884682 451.81818720920046 415.6693777861418C458.727278309972 417.2239232838154 465.6363694107436 397.4811954633606 472.54546051151516 396.70392271452386C479.45455161228676 395.92664996568703 486.3636427130583 412.5084686075388 493.27273381382986 411.005741293121C500.1818249146014 409.50301397870317 510.5454615657588 391.57392257220096 514.0000071161446 387.6875588280169 " transform="rotate(36, 400, 400)"></path><path d="M295.50000072479247 405.8135960667585C298.6666674793128 403.2010959942792 308.1666677428737 389.75859562134053 314.50000125191434 390.138595631883C320.8333347609549 390.51859564242545 327.1666682699955 408.2835961352843 333.50000177903615 408.0935961300131C339.83333528807674 407.9035961247419 346.1666687971174 388.8560955963023 352.50000230615797 388.99859560025567C358.83333581519855 389.1410956042091 365.1666693242392 409.51859616954727 371.5000028332798 408.9485961537336C377.8333363423204 408.37859613791994 384.166669851361 386.3385955264586 390.5000033604016 385.57859550537376C396.8333368694422 384.8185954842889 403.1666703784828 403.91359601404633 409.5000038875234 404.38859602722437C415.83333739656405 404.8635960404024 422.16667090560463 386.7660955383189 428.5000044146452 388.428595584442C434.8333379236858 390.0910956305652 441.16667143272645 412.9385962644292 447.5000049417671 414.36359630396333C453.8333384508077 415.78859634349743 460.1666719598483 397.6910958414139 466.50000546888884 396.9785958216469C472.8333389779295 396.26609580187977 479.1666724869701 411.46609622357727 485.5000059960107 410.0885961853609C491.8333395050513 408.7110961471446 501.3333397686122 392.2760956911842 504.50000652313247 388.71359559234884 " transform="rotate(33, 400, 400)"></path><path d="M305.0000006589023 405.2850873334168C307.8787886175571 402.9100872675266 316.51515249352155 390.6896323830369 322.2727284108312 391.03508693807544C328.03030432814086 391.38054149311404 333.7878802454505 407.5305419411676 339.54545616276016 407.3578146636483C345.3030320800698 407.185087386129 351.0606079973794 389.86917781482026 356.81818391468903 389.9987232729597C362.5757598319987 390.1282687310992 368.33333574930833 408.65326924504296 374.090911666618 408.13508741248506C379.84848758392764 407.6169055799272 385.60606350123726 387.58054138768966 391.3636394185469 386.8896322776125C397.12121533585656 386.1987231675354 402.8787912531662 403.5578145582239 408.63636717047586 403.98963275202215C414.3939430877855 404.42145094582037 420.1515190050951 387.9691777621081 425.90909492240473 389.48054144040185C431.66667083971436 390.9919051186956 437.42424675702404 411.76236024039014 443.1818226743337 413.0578148217848C448.93939859164334 414.3532694031795 454.69697450895296 397.9009962194672 460.45455042626264 397.25326892876984C466.21212634357227 396.6055416380725 471.96970226088195 410.42372383961566 477.72727817819157 409.1714510776008C483.4848540955012 407.91917831558595 492.1212179714656 392.97826881016744 495.00000593012044 389.7396323566808 " transform="rotate(30, 400, 400)"></path><path d="M314.50000059301203 404.75657860007516C317.09090975580136 402.6190785407739 324.8636372441694 391.6206691447332 330.04545556974807 391.9315782442679C335.2272738953268 392.2424873438026 340.40909222090545 406.7774877470508 345.5909105464841 406.6220331972835C350.77272887206277 406.4665786475161 355.9545471976415 390.88226003333824 361.13636552322015 390.9988509456637C366.31818384879887 391.11544185798925 371.5000021743775 407.78794232053866 376.6818204999562 407.3215786712366C381.86363882553485 406.8552150219345 387.0454571511135 388.8224872489207 392.2272754766922 388.2006690498513C397.4090938022709 387.5788508507818 402.59091212784955 403.2020331024015 407.77273045342827 403.5906694768199C412.9545487790069 403.97930585123834 418.1363671045856 389.17225998589726 423.31818543016425 390.53248729636164C428.50000375574297 391.8927146068261 433.6818220813217 410.58612421635115 438.86364040690034 411.7520333396063C444.045458732479 412.91794246286156 449.22727705805767 398.1108965975205 454.4090953836363 397.52794203589286C459.590913709215 396.9449874742653 464.77273203479376 409.3813514556541 469.95455036037237 408.25430596984074C475.1363686859511 407.1272604840274 482.9090961743191 393.68044192915073 485.5000053371084 390.7656691210127 " transform="rotate(27, 400, 400)"></path><path d="M324.0000005271218 404.22806986673345C326.30303089404566 402.32806981402126 333.21212199481727 392.5517059064295 337.81818272866496 392.8280695504603C342.42424346251266 393.1044331944912 347.03030419636036 406.02443355293406 351.6363649302081 405.8862517309186C356.2424256640558 405.7480699089032 360.8484863979035 391.8953422518562 365.45454713175127 391.9989786183678C370.06060786559897 392.1026149848793 374.66666859944667 406.92261539603436 379.27272933329436 406.5080699299881C383.8787900671421 406.0935244639418 388.4848508009898 390.06443311015175 393.0909115348375 389.51170582209C397.6969722686853 388.9589785340283 402.30303300253297 402.84625164657916 406.90909373638067 403.1917062016177C411.51515447022837 403.5371607566563 416.12121520407607 390.37534220968644 420.7272759379238 391.5844331523215C425.3333366717715 392.7935240949565 429.9393974056193 409.4098881923121 434.545458139467 410.44625185742785C439.15151887331467 411.4826155225436 443.75757960716237 398.3207969755738 448.36364034101007 397.8026151430159C452.96970107485777 397.28443331045804 457.5757618087055 408.33897907169256 462.1818225425532 407.3371608620807C466.7878832764009 406.3353426524688 473.6969743771725 394.38261504813397 476.0000047440964 391.79170588534464 " transform="rotate(24, 400, 400)"></path><path d="M333.5000004612316 403.69956113339174C335.51515203228996 402.0370610872686 341.56060674546507 393.4827426681258 345.59090988758186 393.72456085665283C349.6212130296986 393.9663790451798 353.65151617181533 405.2713793588173 357.6818193139321 405.1504702645538C361.71212245604886 405.0295611702903 365.7424255981656 392.90842447037414 369.77272874028233 392.9991062910718C373.80303188239907 393.08978811176945 377.8333350245158 406.05728847153006 381.8636381666326 405.69456118873956C385.89394130874933 405.33183390594905 389.92424445086607 391.30637897138274 393.95454759298286 390.82274259432876C397.9848507350996 390.3391062172748 402.01515387721633 402.49047019075675 406.04545701933307 402.7927429264155C410.0757601614498 403.0950156620743 414.1060633035666 391.5784244334757 418.13636644568334 392.6363790082813C422.1666695878001 393.6943335830869 426.19697272991687 408.2336521682731 430.2272758720336 409.1404703752494C434.25757901415034 410.04728858222563 438.2878821562671 398.53069735362703 442.3181852983838 398.0772882501389C446.34848844050055 397.6238791466508 450.37879158261734 407.29660668773096 454.4090947247341 406.42001575432056C458.4393978668508 405.54342482091016 464.484852580026 395.0847881671172 466.50000415108434 392.8177426496766 " transform="rotate(21, 400, 400)"></path><path d="M342.9999965806441 403.1710524000501C344.727269355837 401.74605236051593 349.90908768141566 394.4137794298221 353.3636332318015 394.6210521628453C356.81817878218726 394.82832489586843 360.27272433257303 404.5183251647005 363.7272698829588 404.414688798189C367.1818154333446 404.3110524316774 370.63636098373036 393.9215066888921 374.0909065341162 393.99923396377585C377.54545208450196 394.0769612386595 380.99999763488773 405.19196154702576 384.45454318527356 404.8810524474911C387.90908873565934 404.57014334795633 391.3636342860451 392.5483248326138 394.8181798364309 392.1337793665675C398.27272538681666 391.7192339005212 401.72727093720243 402.13468873493434 405.1818164875882 402.39377965121326C408.63636203797404 402.65287056749224 412.0909075883598 392.78150665726486 415.5454531387456 393.6883248642411C418.99999868913136 394.59514307121736 422.4545442395172 407.0574161442341 425.90908978990296 407.8346888930709C429.36363534028874 408.6119616419077 432.8181808906745 398.74059773168034 436.2727264410603 398.3519613572619C439.7272719914461 397.9633249828435 443.1818175418319 406.2542343037694 446.63636309221766 405.5028706465605C450.09090864260344 404.7515069893516 455.27272696818216 395.78696128610045 456.99999974337504 393.84377941400845 " transform="rotate(18, 400, 400)"></path><path d="M352.4999965147539 402.64254366670843C353.9393904940813 401.4550436337633 358.2575724320635 395.3448161915184 361.1363603907183 395.5175434690377C364.01514834937313 395.690270746557 366.89393630802795 403.7652709705838 369.7727242666828 403.6789073318241C372.6515122253376 403.5925436930645 375.53030018399244 394.9345889074101 378.40908814264725 394.9993616364799C381.2878761013021 395.0641343655496 384.16666405995693 404.32663462252145 387.04545201861174 404.06754370624253C389.92423997726655 403.8084527899636 392.80302793592136 393.79027069384483 395.6818158945762 393.44481613880623C398.560603853231 393.0993615837677 401.4393918118858 401.778907279112 404.31817977054067 401.99481637601104C407.1969677291955 402.2107254729102 410.0757556878503 393.98458888105404 412.9545436465051 394.7402707202009C415.8333316051599 395.4959525593478 418.7121195638148 405.8811801201951 421.5909075224696 406.52890741089243C424.4696954811244 407.17663470158976 427.3484834397792 398.9504981097336 430.227271398434 398.62663446438495C433.10605935708884 398.30277081903625 435.9848473157437 405.21186191980786 438.8636352743985 404.58572553880043C441.74242323305333 403.959589157793 446.06060517103555 396.48913440508375 447.49999915036295 394.8698161783404 " transform="rotate(15, 400, 400)"></path><path d="M361.9999964488636 402.1140349333667C363.1515116323256 401.16403490701066 366.60605718271137 396.2758529532147 368.9090875496352 396.41403477523016C371.21211791655907 396.5522165972456 373.5151482834829 403.012216776467 375.81817865040676 402.9431258654593C378.12120901733067 402.8740349544516 380.4242393842545 395.9476711259281 382.72726975117837 395.9994893091839C385.0303001181022 396.05130749243966 387.33333048502607 403.4613076980172 389.6363608519499 403.25403496499405C391.93939121887377 403.0467622319709 394.2424215857976 395.0322165550759 396.54545195272146 394.755852911045C398.84848231964537 394.4794892670141 401.1515126865692 401.4231258232896 403.45454305349307 401.5958531008089C405.7575734204169 401.7685803783281 408.06060378734077 395.1876711048432 410.3636341542647 395.79221657616074C412.6666645211885 396.39676204747826 414.9696948881124 404.70494409615605 417.2727252550362 405.22312592871396C419.57575562196007 405.7413077612718 421.8787859888839 399.1603984877869 424.18181635580777 398.90130757150797C426.4848467227316 398.642216655229 428.78787708965547 404.16948953584625 431.0909074565793 403.6685804310403C433.39393782350317 403.16767132623437 436.848483373889 397.191307524067 437.9999985573509 395.8958529426723 " transform="rotate(12, 400, 400)"></path><path d="M371.5000001976707 401.585526200025C372.36363658526716 400.87302618025797 374.9545457480565 397.2068897149111 376.6818185232494 397.3105260814226C378.40909129844226 397.4141624479342 380.13636407363515 402.25916258235026 381.86363684882804 402.2073443990945C383.5909096240209 402.1555262158387 385.3181823992138 396.96075334444606 387.0454551744067 396.9996169818879C388.7727279495996 397.03848061932973 390.50000072479247 402.5959807735129 392.2272734999854 402.4405262237455C393.9545462751783 402.28507167397817 395.6818190503712 396.2741624163069 397.4090918255641 396.06688968328376C399.13636460075696 395.8596169502606 400.86363737594985 401.0673443674672 402.59091015114274 401.19688982560666C404.3181829263357 401.3264352837461 406.04545570152857 396.3907533286324 407.77272847672145 396.8441624321206C409.50000125191434 397.2975715356087 411.2272740271072 403.52870807211707 412.9545468023001 403.9173444465354C414.681819577493 404.30598082095383 416.4090923526859 399.37029886584014 418.1363651278788 399.17598067863094C419.86363790307166 398.98166249142173 421.59091067826455 403.1271171518847 423.31818345345744 402.75143532328025C425.0454562286503 402.3757534946758 427.6363653914397 397.8934806430502 428.50000177903615 396.92188970700425 " transform="rotate(9, 400, 400)"></path><path d="M381.00000013178044 401.05701746668336C381.5757577235114 400.58201745350533 383.3030304987043 398.1379264766074 384.4545456821662 398.2070173876151C385.60606086562814 398.27610829862283 386.75757604909006 401.50610838823354 387.90909123255204 401.4715629327297C389.06060641601397 401.4370174772258 390.2121215994759 397.97383556296404 391.3636367829378 397.99974465459195C392.51515196639974 398.02565374621986 393.66666714986167 401.7306538490086 394.8181823333236 401.627017482497C395.9696975167855 401.52338111598544 397.12121270024744 397.5161082775379 398.27272788370936 397.37792645552247C399.42424306717135 397.2397446335071 400.57575825063327 400.71156291164476 401.7272734340952 400.79792655040444C402.8787886175571 400.88429018916406 404.03030380101904 397.59383555242164 405.18181898448097 397.89610828808037C406.3333341679429 398.1983810237391 407.4848493514048 402.352472048078 408.63636453486674 402.61156296435695C409.78787971832867 402.8706538806359 410.9393949017906 399.58019924389345 412.0909100852525 399.45065378575396C413.24242526871444 399.3211083276145 414.39394045217637 402.08474476792315 415.5454556356383 401.8342902155202C416.6969708191002 401.5838356631172 418.4242435942931 398.5956537620335 419.00000118602406 397.94792647133613 " transform="rotate(6, 400, 400)"></path><path d="M390.5000000658902 400.5285087333417C390.7878788617557 400.29100872675264 391.65151524935214 399.0689632383037 392.2272728410831 399.10350869380756C392.80303043281407 399.1380541493114 393.37878802454503 400.75305419411677 393.954545616276 400.7357814663648C394.530303208007 400.7185087386129 395.106060799738 398.986917781482 395.68181839146894 398.999872327296C396.2575759831999 399.01282687310993 396.83333357493086 400.8653269245043 397.4090911666618 400.8135087412485C397.9848487583928 400.7616905579927 398.56060635012375 398.75805413876895 399.1363639418547 398.68896322776123C399.7121215335857 398.6198723167535 400.28787912531664 400.3557814558224 400.8636367170476 400.3989632752022C401.43939430877856 400.44214509458203 402.0151519005095 398.7969177762108 402.5909094922405 398.94805414404016C403.16666708397145 399.09919051186955 403.7424246757024 401.176236024039 404.3181822674334 401.3057814821785C404.89393985916433 401.43532694031796 405.4696974508953 399.79009962194675 406.04545504262626 399.725326892877C406.6212126343572 399.66055416380726 407.1969702260882 401.04237238396155 407.77272781781915 400.91714510776006C408.3484854095501 400.7919178315586 409.21212179714655 399.29782688101676 409.50000059301203 398.97396323566807 " transform="rotate(3, 400, 400)"></path></g></svg>